<?xml version="1.0" encoding="UTF-8" standalone="no"?>
<svg
   xmlns:dc="http://purl.org/dc/elements/1.1/"
   xmlns:cc="http://creativecommons.org/ns#"
   xmlns:rdf="http://www.w3.org/1999/02/22-rdf-syntax-ns#"
   xmlns:svg="http://www.w3.org/2000/svg"
   xmlns="http://www.w3.org/2000/svg"
   xmlns:sodipodi="http://sodipodi.sourceforge.net/DTD/sodipodi-0.dtd"
   xmlns:inkscape="http://www.inkscape.org/namespaces/inkscape"
   width="50pt"
   height="50pt"
   viewBox="0 0 50 50"
   xml:space="preserve"
   id="svg2"
   sodipodi:version="0.32"
   inkscape:version="0.92+devel unknown"
   sodipodi:docname="image-png.svg"
   version="1.1"><metadata
     id="metadata111"><rdf:RDF><cc:Work
         rdf:about=""><dc:format>image/svg+xml</dc:format><dc:type
           rdf:resource="http://purl.org/dc/dcmitype/StillImage" /></cc:Work></rdf:RDF></metadata><defs
     id="defs109" /><sodipodi:namedview
     inkscape:window-height="518"
     inkscape:window-width="714"
     inkscape:pageshadow="2"
     inkscape:pageopacity="0.0"
     borderopacity="1.0"
     bordercolor="#666666"
     pagecolor="#ffffff"
     id="base"
     inkscape:zoom="5.472"
     inkscape:cx="31.25"
     inkscape:cy="31.25"
     inkscape:window-x="327"
     inkscape:window-y="279"
     inkscape:current-layer="svg2"
     inkscape:document-rotation="0"
     showgrid="false"
     inkscape:window-maximized="0" /><g
     style="fill:#999999;fill-opacity:1;fill-rule:nonzero;stroke:none;stroke-miterlimit:4"
     id="Icon Shadow"
     transform="scale(0.500000,0.500000)"><path
       id="path7"
       d="M 32.500000,100.00000 L 22.500000,95.000000 L 68.500000,72.000000 L 77.500000,77.000000 L 32.500000,100.00000 z "
       style="fill:#999999;fill-opacity:1" /></g><g
     style="fill:#ffffff;fill-opacity:1.0000000;stroke:#000000;stroke-miterlimit:4.0000000"
     id="Icon"
     transform="scale(0.500000,0.500000)"><path
       id="path10"
       d="M 27.500000,87.000000 L 27.500000,22.000000 L 72.500000,0.0000000 L 72.500000,65.000000 L 27.500000,87.000000 z " /></g><g
     style="fill:#888c38;fill-opacity:1.0000000;fill-rule:nonzero;stroke:none;stroke-miterlimit:4.0000000"
     id="Solid Poly "
     transform="scale(0.500000,0.500000)"><path
       id="path13"
       d="M 34.530000,65.480000 L 34.500000,30.500000 L 39.500000,34.000000 L 39.500000,37.000000 L 39.500000,40.000000 L 40.000000,43.000000 L 40.500000,45.000000 L 41.500000,47.950000 L 43.500000,50.000000 L 45.000000,52.300000 L 46.500000,55.000000 L 52.110000,56.650000 L 34.530000,65.480000 z " /></g><g
     style="fill:none;fill-opacity:1.0000000;stroke:#7070c0;stroke-miterlimit:4.0000000"
     id="Line 1 Drop Over Poly"
     transform="scale(0.500000,0.500000)"><path
       id="path16"
       d="M 35.000000,66.500000 L 65.500000,51.000000" /></g><g
     style="fill:none;fill-opacity:1.0000000;stroke:#000000;stroke-miterlimit:4.0000000"
     id="Line 2"
     transform="scale(0.500000,0.500000)"><path
       id="path19"
       d="M 35.000000,30.500000 L 40.500000,28.000000" /></g><g
     style="fill:none;fill-opacity:1.0000000;stroke:#000000;stroke-miterlimit:4.0000000"
     id="Line 3"
     transform="scale(0.500000,0.500000)"><path
       id="path22"
       d="M 35.000000,27.000000 L 65.500000,11.750000" /></g><g
     style="fill:none;fill-opacity:1.0000000;stroke:#388c88;stroke-miterlimit:4.0000000"
     id="Line 4"
     transform="scale(0.500000,0.500000)"><path
       id="path25"
       d="M 55.500000,23.000000 L 65.500000,18.000000" /></g><g
     style="fill:none;fill-opacity:1.0000000;stroke:#000000;stroke-miterlimit:4.0000000"
     id="Line 5"
     transform="scale(0.500000,0.500000)"><path
       id="path28"
       d="M 55.500000,25.000000 L 61.500000,22.000000" /></g><g
     style="fill:none;fill-opacity:1.0000000;stroke:#000000;stroke-miterlimit:4.0000000"
     id="Line 6"
     transform="scale(0.500000,0.500000)"><path
       id="path31"
       d="M 61.500000,23.000000 L 65.500000,21.000000" /></g><g
     style="fill:none;fill-opacity:1.0000000;stroke:#7070c0;stroke-miterlimit:4.0000000"
     id="Line 7"
     transform="scale(0.500000,0.500000)"><path
       id="path34"
       d="M 56.500000,27.000000 L 60.500000,25.000000" /></g><g
     style="fill:none;fill-opacity:1.0000000;stroke:#0000f8;stroke-miterlimit:4.0000000"
     id="Line 8"
     transform="scale(0.500000,0.500000)"><path
       id="path37"
       d="M 55.500000,29.000000 L 60.500000,26.500000" /></g><g
     style="fill:none;fill-opacity:1.0000000;stroke:#388c88;stroke-miterlimit:4.0000000"
     id="Line 9"
     transform="scale(0.500000,0.500000)"><path
       id="path40"
       d="M 63.500000,25.500000 L 65.500000,24.500000" /></g><g
     style="fill:none;fill-opacity:1.0000000;stroke:#7070c0;stroke-miterlimit:4.0000000"
     id="Line 10"
     transform="scale(0.500000,0.500000)"><path
       id="path43"
       d="M 56.500000,30.000000 L 62.500000,27.000000" /></g><g
     style="fill:none;fill-opacity:1.0000000;stroke:#7070c0;stroke-miterlimit:4.0000000"
     id="Line 11"
     transform="scale(0.500000,0.500000)"><path
       id="path46"
       d="M 63.500000,40.500000 L 65.500000,39.500000" /></g><g
     style="fill:none;fill-opacity:1.0000000;stroke:#7070c0;stroke-miterlimit:4.0000000"
     id="Line 12"
     transform="scale(0.500000,0.500000)"><path
       id="path49"
       d="M 62.500000,44.500000 L 65.500000,43.000000" /></g><g
     style="fill:none;fill-opacity:1.0000000;stroke:#7070c0;stroke-miterlimit:4.0000000"
     id="Line 13"
     transform="scale(0.500000,0.500000)"><path
       id="path52"
       d="M 61.500000,48.000000 L 65.500000,46.000000" /></g><g
     style="fill:none;fill-opacity:1.0000000;stroke:#7070c0;stroke-miterlimit:4.0000000"
     id="Line 14"
     transform="scale(0.500000,0.500000)"><path
       id="path55"
       d="M 60.500000,51.400000 L 65.500000,48.900000" /></g><g
     style="fill:none;fill-opacity:1.0000000;stroke:#000000;stroke-miterlimit:4.0000000"
     id="Line 15"
     transform="scale(0.500000,0.500000)"><path
       id="path58"
       d="M 43.500000,29.000000 L 48.500000,26.500000" /></g><g
     style="fill:none;fill-opacity:1.0000000;stroke:#000000;stroke-miterlimit:4.0000000"
     id="Line 16"
     transform="scale(0.500000,0.500000)"><path
       id="path61"
       d="M 41.500000,31.000000 L 49.500000,27.000000" /></g><g
     style="fill:none;fill-opacity:1.0000000;stroke:#7070c0;stroke-miterlimit:4.0000000"
     id="Line 17"
     transform="scale(0.500000,0.500000)"><path
       id="path64"
       d="M 44.500000,33.000000 L 49.500000,30.500000" /></g><g
     style="fill:none;fill-opacity:1.0000000;stroke:#0000f8;stroke-miterlimit:4.0000000"
     id="Line 18"
     transform="scale(0.500000,0.500000)"><path
       id="path67"
       d="M 43.500000,36.000000 L 51.000000,32.250000" /></g><g
     style="fill:none;fill-opacity:1.0000000;stroke:#7070c0;stroke-miterlimit:4.0000000"
     id="Line 19"
     transform="scale(0.500000,0.500000)"><path
       id="path70"
       d="M 47.500000,35.000000 L 49.500000,34.000000" /></g><g
     style="fill:none;fill-opacity:1.0000000;stroke:#505450;stroke-miterlimit:4.0000000"
     id="Line 20"
     transform="scale(0.500000,0.500000)"><path
       id="path73"
       d="M 51.500000,39.000000 L 53.500000,38.000000" /></g><g
     style="fill:none;fill-opacity:1.0000000;stroke:#505450;stroke-miterlimit:4.0000000"
     id="Line 21"
     transform="scale(0.500000,0.500000)"><path
       id="path76"
       d="M 51.500000,40.000000 L 53.500000,39.000000" /></g><g
     style="fill:none;fill-opacity:1.0000000;stroke:#505450;stroke-miterlimit:4.0000000"
     id="Line 22"
     transform="scale(0.500000,0.500000)"><path
       id="path79"
       d="M 55.500000,38.000000 L 57.500000,37.000000" /></g><g
     style="fill:none;fill-opacity:1.0000000;stroke:#f80000;stroke-miterlimit:4.0000000"
     id="Line 23"
     transform="scale(0.500000,0.500000)"><path
       id="path82"
       d="M 51.500000,45.500000 L 52.500000,45.000000" /></g><g
     style="fill:none;fill-opacity:1.0000000;stroke:#f80000;stroke-miterlimit:4.0000000"
     id="Line 24"
     transform="scale(0.500000,0.500000)"><path
       id="path85"
       d="M 55.000000,43.750000 L 59.500000,41.500000" /></g><g
     style="fill:none;fill-opacity:1.0000000;stroke:#f80000;stroke-miterlimit:4.0000000"
     id="Line 25"
     transform="scale(0.500000,0.500000)"><path
       id="path88"
       d="M 50.500000,47.500000 L 59.500000,43.000000" /></g><g
     style="fill:none;fill-opacity:1.0000000;stroke:#c07070;stroke-miterlimit:4.0000000"
     id="Line 26"
     transform="scale(0.500000,0.500000)"><path
       id="path91"
       d="M 51.500000,47.500000 L 59.500000,43.500000" /></g><g
     style="fill:none;fill-opacity:1.0000000;stroke:#f80000;stroke-miterlimit:4.0000000"
     id="Line 27"
     transform="scale(0.500000,0.500000)"><path
       id="path94"
       d="M 52.500000,48.500000 L 59.500000,45.000000" /></g><g
     style="fill:none;fill-opacity:1.0000000;stroke:#000000;stroke-miterlimit:4.0000000"
     id="Path_60"
     transform="scale(0.500000,0.500000)"><path
       id="path97"
       d="M 64.840000,62.680000 L 62.880000,65.160000 L 59.420000,66.890000 L 57.480000,66.380000 L 57.400000,59.030000 L 59.240000,56.780000 L 64.800000,54.000000" /></g><g
     style="fill:none;fill-opacity:1.0000000;stroke:#000000;stroke-miterlimit:4.0000000"
     id="Path_61"
     transform="scale(0.500000,0.500000)"><path
       id="path100"
       d="M 61.190000,61.420000 L 64.880000,59.570000 L 64.900000,64.930000" /></g><g
     style="fill:none;fill-opacity:1.0000000;stroke:#000000;stroke-miterlimit:4.0000000"
     id="Path_59"
     transform="scale(0.500000,0.500000)"><path
       id="path103"
       d="M 36.600000,78.000000 L 36.560000,68.120000 L 41.020000,65.910000 L 43.190000,67.080000 L 43.370000,68.840000 L 42.750000,71.310000 L 36.600000,74.400000" /></g><g
     style="fill:none;fill-opacity:1.0000000;stroke:#000000;stroke-miterlimit:4.0000000"
     id="Path_33"
     transform="scale(0.500000,0.500000)"><path
       id="path106"
       d="M 54.400000,59.200000 L 54.480000,69.360000 L 47.520000,62.640000 L 47.600000,72.600000" /></g></svg>
